<mxfile host="app.diagrams.net" modified="2021-06-10T10:34:03.404Z" agent="5.0 (Macintosh; Intel Mac OS X 10_15_7) AppleWebKit/537.36 (KHTML, like Gecko) Chrome/91.0.4472.77 Safari/537.36" etag="pZCQwz0L6r-Qjc_OELag" version="14.7.7" type="github">
  <diagram id="0gDMZchkQGuCtJxK5IAj" name="Page-1">
    <mxGraphModel dx="879" dy="526" grid="1" gridSize="10" guides="1" tooltips="1" connect="1" arrows="1" fold="1" page="1" pageScale="1" pageWidth="800" pageHeight="800" background="none" math="0" shadow="0">
      <root>
        <mxCell id="0" />
        <mxCell id="1" parent="0" />
        <mxCell id="JNs-4Zv9snLAIN2Zi3C2-15" value="" style="group" vertex="1" connectable="0" parent="1">
          <mxGeometry x="70" y="50" width="80" height="110" as="geometry" />
        </mxCell>
        <mxCell id="JNs-4Zv9snLAIN2Zi3C2-12" value="" style="endArrow=oval;html=1;fillColor=#f8cecc;strokeWidth=3;curved=1;endFill=1;startArrow=oval;startFill=0;strokeColor=#CC0000;" edge="1" parent="JNs-4Zv9snLAIN2Zi3C2-15">
          <mxGeometry width="50" height="50" relative="1" as="geometry">
            <mxPoint x="10" y="110" as="sourcePoint" />
            <mxPoint x="60" y="-20" as="targetPoint" />
            <Array as="points">
              <mxPoint x="60" y="80" />
              <mxPoint x="20" y="10" />
            </Array>
          </mxGeometry>
        </mxCell>
        <mxCell id="JNs-4Zv9snLAIN2Zi3C2-13" value="" style="curved=1;endArrow=oval;html=1;strokeWidth=4;endFill=0;startArrow=oval;startFill=0;strokeColor=#999999;" edge="1" parent="JNs-4Zv9snLAIN2Zi3C2-15">
          <mxGeometry width="50" height="50" relative="1" as="geometry">
            <mxPoint x="-40" y="120" as="sourcePoint" />
            <mxPoint x="120" y="120" as="targetPoint" />
            <Array as="points">
              <mxPoint />
              <mxPoint x="20" y="80" />
              <mxPoint x="40" y="110" />
              <mxPoint x="60" y="80" />
              <mxPoint x="80" />
            </Array>
          </mxGeometry>
        </mxCell>
      </root>
    </mxGraphModel>
  </diagram>
</mxfile>
